<svg id="Layer_1" data-name="Layer 1" xmlns="http://www.w3.org/2000/svg" viewBox="0 0 19.91 19.61"><defs><style>.cls-1{fill:#d9d9d9;}</style></defs><path class="cls-1" d="M12.19,10.48c1.87-1.4,3.73-2.82,5.49-4.36a7.86,7.86,0,0,0,2.25-2.49,2.08,2.08,0,0,0-.54-2.5,7.08,7.08,0,0,0-3.7-.91,9.7,9.7,0,0,0-4,.48c-.16.06-.21.33,0,.37,2.17.44,4.4-.07,6.53.72,2.39.88-1.56,3.67-2.4,4.38C12.52,8.9,9,11.3,5.69,14a27.94,27.94,0,0,0-4.36,4.27l.06-.57c.05-.51.29-1.2,0-1.65a.3.3,0,0,0-.41-.1C.49,16.26.49,17,.39,17.52a5.71,5.71,0,0,0-.14,2,.44.44,0,0,0,.64.26A9.33,9.33,0,0,1,4.1,19c.51-.09.35-.83-.12-.86a5.07,5.07,0,0,0-1.81.27c1.48-1.21,2.93-2.46,4.42-3.66C8.42,13.26,10.31,11.89,12.19,10.48Z" transform="translate(-0.21 -0.19)"/></svg>