<svg id="Layer_1" data-name="Layer 1" xmlns="http://www.w3.org/2000/svg" viewBox="0 0 1280.61 1056.05"><defs><style>.cls-1{fill:#fed099;}.cls-2{fill:#22b6b4;}.cls-3{fill:#f57b92;}.cls-4{fill:#fff;}</style></defs><path d="M9.19,840V692.91a3.68,3.68,0,0,0-1.89-3.52,8.51,8.51,0,0,1-5.14-7.83c0-5.14,4.33-8.65,9.2-8.65H79.2a52.83,52.83,0,0,1,53,52.71c0,16-8.65,30.81-20.54,38.38,17.3,8.11,29.74,26.76,29.74,46A52.21,52.21,0,0,1,89.2,862.13H8.92A9.25,9.25,0,0,1,0,852.93a8.53,8.53,0,0,1,6-8.11A4.94,4.94,0,0,0,9.19,840m80-65.14H26.49v64.06c0,2.43-.54,5.14-1.89,5.94H89.2A34.84,34.84,0,0,0,124.35,810c0-20.82-15.68-35.14-35.15-35.14m-10-84.61H25.14c1.35,1.35,1.35,3.51,1.35,5.13v61.9h57c19.19,0,31.35-11.35,31.35-31.62A35.41,35.41,0,0,0,79.2,690.21" transform="translate(0 -1.38)"/><path d="M250.33,849.41a38.2,38.2,0,0,1-.54-8.1c-7.57,13.79-27.3,22.16-43.25,22.16-26.76,0-51.63-15.67-51.63-44.86,0-35.14,28.65-51.1,61.63-51.1,11.63,0,24.6,3.52,33.25,8.92v-7.56c0-6.22-.81-13.79-1.62-16-4.33-11.89-19.73-15.41-35.41-15.41-11.9,0-20.28,1.89-31.09,4.86a17.58,17.58,0,0,1-3.78.54,8.09,8.09,0,0,1-8.38-8.37,9,9,0,0,1,6-8.11c10-3.79,23.24-6.22,36.22-6.22,22.43,0,44.87,6.22,52.71,26.49,2.43,6.22,2.7,14.06,2.7,21.63v73.8a3.65,3.65,0,0,0,1.89,3.5,8.53,8.53,0,0,1,5.14,7.84c0,5.14-4.32,10-9.19,10-7.85,0-12.71-6.76-14.6-14.06m-.54-56.22c-12.17-6.75-22.17-8.38-34.06-8.38-21.89,0-43.52,9.74-43.52,33.52,0,19.19,17.57,28.12,34.87,28.12,20,0,42.71-13,42.71-35.14Z" transform="translate(0 -1.38)"/><path d="M294.4,853.47a8.53,8.53,0,0,1,5.14-7.84,3.65,3.65,0,0,0,1.89-3.5V684.26a3.68,3.68,0,0,0-1.89-3.52,8.25,8.25,0,0,1-4.86-7.83c0-5.14,4.32-8.65,9.18-8.65,10,0,14.87,8.65,14.87,18.91v92.72l-.81,22.17h.27l20-22.17,39.19-39.19c2.43-2.43.54-4.59.27-7.57,0-4.86,4-7.57,8.38-7.57,6.49,0,10.27,5.68,10.54,11.08a19.34,19.34,0,0,1-6.22,15.41l-41.62,41.63,40.54,52.71a4.13,4.13,0,0,0,3.25,1.89c1.08,0,1.62-.54,3-.54,4.59,0,7.57,4.06,7.57,8.38,0,6.22-6.22,10-11.63,10-5.67,0-11.62-3.51-15.13-8.38l-39.74-51.63-17.84,17.57V843.2c0,10.27-5.13,18.92-15.13,18.92-4.87,0-9.2-3.51-9.2-8.65" transform="translate(0 -1.38)"/><path d="M424.17,800.49c3.51,23.79,23,45.69,48.38,45.69,18.93,0,32.44-5.68,41.36-14.6a9.38,9.38,0,0,1,6.76-2.7c4.32,0,8.65,3.51,8.65,8.1a8.56,8.56,0,0,1-2.43,6.22c-12.17,13-29.74,20.28-54.34,20.28-38.92,0-65.95-33.52-65.95-71.91,0-36.76,27-71.36,65.95-71.36,39.2,0,66.5,34.33,66.5,71.36,0,5.14-4.6,8.92-9.19,8.92Zm97.31-17.3c-3.25-24.06-23.52-45.68-48.93-45.68-24.86,0-45.68,21.62-48.38,45.68Z" transform="translate(0 -1.38)"/><path d="M669.36,843.2v-7c-10,17-29.19,25.94-47.58,25.94h-2.43c-35.68,0-61.9-33.51-61.9-71.9,0-38.92,27-68.66,64.33-68.66,18.12,0,39.47,8.65,47.58,25.14V683.18c0-10.27,5.14-18.92,15.14-18.92,4.86,0,9.19,3.51,9.19,8.65a8.49,8.49,0,0,1-5.14,7.83,3.68,3.68,0,0,0-1.89,3.52V842.12a3.66,3.66,0,0,0,1.89,3.51,8.52,8.52,0,0,1,5.14,7.85c0,5.13-4.33,8.64-9.19,8.64-10,0-15.14-8.64-15.14-18.92m-47.3-104.61c-28.93,0-47.31,24.33-47.31,51.63,0,26.76,18.11,54.6,47.31,54.6,29.46,0,47.3-27.57,47.3-54.87s-19.19-51.36-47.3-51.36" transform="translate(0 -1.38)"/><path d="M727.49,767.78c0-51.36,42.71-96.5,95.42-96.5a101.29,101.29,0,0,1,46.77,11.36,9.09,9.09,0,0,1,4.32,7.84,8.77,8.77,0,0,1-8.65,8.92,11.42,11.42,0,0,1-4.06-1.08,79.4,79.4,0,0,0-37.84-9.74c-43.25,0-78.66,36-78.66,79.2,0,43,36,78.67,78.93,78.67A77,77,0,0,0,866.16,834a8.33,8.33,0,0,1,4.86-1.35,8.81,8.81,0,0,1,4.6,16.22,98.11,98.11,0,0,1-51.9,14.87c-54.06,0-96.23-44.87-96.23-96" transform="translate(0 -1.38)"/><path d="M983.23,849.41a38.2,38.2,0,0,1-.54-8.1c-7.57,13.79-27.3,22.16-43.26,22.16-26.75,0-51.63-15.67-51.63-44.86,0-35.14,28.66-51.1,61.64-51.1,11.62,0,24.59,3.52,33.25,8.92v-7.56c0-6.22-.81-13.79-1.63-16-4.32-11.89-19.73-15.41-35.41-15.41-11.89,0-20.27,1.89-31.08,4.86a17.67,17.67,0,0,1-3.78.54,8.09,8.09,0,0,1-8.39-8.37,9,9,0,0,1,6-8.11c10-3.79,23.24-6.22,36.22-6.22,22.43,0,44.87,6.22,52.72,26.49,2.42,6.22,2.7,14.06,2.7,21.63v73.8a3.65,3.65,0,0,0,1.89,3.5,8.52,8.52,0,0,1,5.13,7.84c0,5.14-4.32,10-9.19,10-7.83,0-12.7-6.76-14.59-14.06m-.54-56.22c-12.17-6.75-22.17-8.38-34.06-8.38-21.9,0-43.53,9.74-43.53,33.52,0,19.19,17.58,28.12,34.88,28.12,20,0,42.71-13,42.71-35.14Z" transform="translate(0 -1.38)"/><path d="M1030.28,853.47a8.52,8.52,0,0,1,5.13-7.84,3.65,3.65,0,0,0,1.89-3.5V738.86h-9.19c-4.59,0-7.57-4.32-7.57-8.65a8.37,8.37,0,0,1,8.65-8.65h8.11V709.67c0-24.06,11.09-45.41,39.74-45.41a68.32,68.32,0,0,1,20.55,3.24,9.09,9.09,0,0,1,6.48,8.65c0,6-6,9.73-11.63,8.38-4.59-1.36-10.54-3-15.4-3-16.76,0-22.44,9.19-22.44,28.11v11.89h35.15a8.54,8.54,0,0,1,8.64,8.65c0,4.33-3,8.65-7.56,8.65H1054.6V843.2c0,10.27-5.13,18.92-15.13,18.92-4.87,0-9.19-3.51-9.19-8.65" transform="translate(0 -1.38)"/><path d="M1116.78,800.49c3.52,23.79,23,45.69,48.4,45.69,18.91,0,32.43-5.68,41.36-14.6a9.37,9.37,0,0,1,6.74-2.7c4.34,0,8.66,3.51,8.66,8.1a8.6,8.6,0,0,1-2.43,6.22c-12.17,13-29.74,20.28-54.33,20.28-38.93,0-66-33.52-66-71.91,0-36.76,27-71.36,66-71.36,39.19,0,66.49,34.33,66.49,71.36,0,5.14-4.59,8.92-9.19,8.92Zm97.32-17.3c-3.24-24.06-23.52-45.68-48.92-45.68-24.88,0-45.69,21.62-48.4,45.68Z" transform="translate(0 -1.38)"/><path d="M1260.88,688.86c-6.76,0-11.35-5.41-11.35-11.9,0-7.3,7-12.7,14-12.7,11.08,0,17,12.16,17,21.89,0,14.87-12.43,26.76-24.6,32.71a6.5,6.5,0,0,1-8.92-1.89c-1.89-3.52,0-7,3-8.92,6.48-3.79,14.59-11.9,14.86-19.73a21.75,21.75,0,0,1-4,.54" transform="translate(0 -1.38)"/><path d="M385.19,911.47q9.81,3.28,9.52,6.85c1.52,1.79,2.15,4.23,1.88,7.34l-.49-.1.4,1.09q-6.75,15.09-13.69,17.56l-2-.2a4.54,4.54,0,0,1-3.87-2.38l.1-1a23.89,23.89,0,0,0,9.72-12.9,12.38,12.38,0,0,0,1.49-4.86c0-3-.7-4.62-2.09-4.76q-14.49,3.76-43.24,36.7-34.33,45.93-38.19,65.56l-.3,3.58.4,1q9.12.3,45.92-26.39,5.66-3,8.83-2.77l.49.1q6.45,1.59,6.05,5.55-2.28,8.73-22.31,35.61-3.57,4.37-10.32,19.34l-3.07.69a8.81,8.81,0,0,1-4.27-3.86q1.49-9.53,25.59-43.35l1.29-3q-10,6-14.08,9.92-22.32,15.27-34.62,14.18-8.93-2.09-8.33-8.83,1.78-21.23,42.45-74.29a208.54,208.54,0,0,1,30.35-28.76q8.93-8.34,16.37-7.65" transform="translate(0 -1.38)"/><path d="M391,1005.81l3.18-.2q10.9,1.08,11.4,7,.3,3.76-10,14.48-5.66,5.44-11.7,5.95l-.9.1q-1.87.1-7.44-3.47a20.66,20.66,0,0,0-2.18,7l.6.89a4.72,4.72,0,0,0-.4,1.38q1.79,7,7.34,6.55l1.89-.1q6.56-.6,19.14-12.5c3.51-2.71,5.78-4.13,6.84-4.26l.9-.1c.86-.06,1.55.93,2.08,3q-1,5.85-14,15.66a27.47,27.47,0,0,1-14.39,5.36l-.1-.5-.79.6q-16.06-3.16-17.16-15.17-1.19-13.59,17.85-28.67c3.77-1.85,6.39-2.84,7.84-3m-12.4,18.74.1.4,3.17.59h.5q7.54-2.77,13.69-12.89v-.49q-8.24,1.49-15,9a20.75,20.75,0,0,0-2.48,3.37" transform="translate(0 -1.38)"/><path d="M474.46,929.92c3.83.07,5.82.67,6,1.79l.2,2.18Q469.3,946.6,469.4,947.78a322.56,322.56,0,0,0-23.51,41.56c-2.77,5.55-4.3,8.33-4.56,8.33a3.24,3.24,0,0,1,.5,1.29l3.07-.2,2.78.2a.46.46,0,0,0,.39-.5l2.19.21,7.53-.61a3.4,3.4,0,0,1,1.79.3.46.46,0,0,0,.4-.49h4.46l5.75-.5a.35.35,0,0,1,.4.4c.33,0,.46-.13.4-.4h4.46l2.18-.2c.34,0,.5.14.5.4.33,0,.46-.16.4-.5l2.28.3,7.44-.69c.33,0,.49.13.49.39.33,0,.46-.12.4-.39q18.74-.39,36.7-1.88l.1.39.79-.49,3.57-.3,2.68.2a4.13,4.13,0,0,1,1.29-.6v.5l.9-.6,1.28-.09a3.22,3.22,0,0,1,1.79.29c.33,0,.46-.16.39-.49l2.29.29.39-.09c.93-.07,1.36-.24,1.29-.5l2.29.2,3.47-.3a11.81,11.81,0,0,0,3.46-.69,13.57,13.57,0,0,0,3.58.1l5.35-.51.8-.49.49.9.89-.6h.9c.2,2.05-1.63,3.24-5.46,3.57a3.15,3.15,0,0,1-1.28.49l-.9-.29-2.58,1.48-.4.1c-.32,0-.49-.13-.49-.39a5.29,5.29,0,0,1-2.58,1.09h-.49c-.27.06-.4-.06-.4-.4l-.89.49-.9.1c-.26.07-.43-.06-.5-.39l-.79.49-4,.41-3.07.69V999l-.89.5-4,.3-2.18.69V1000a32.17,32.17,0,0,1-5.65,1.38q-.9.1-.9-.3c-2.91.53-5.09.87-6.55,1l-6.64.6a3.09,3.09,0,0,1-1.78-.3c-.34,0-.47.17-.4.5l-2.28-.3-10.62.89-2.68-.2a.48.48,0,0,0-.39.5l-1.79-.3q-13.49.8-17.16,1.09l-.1-.4a.35.35,0,0,0-.39.4q-30.45,1.4-34.91,1.3a3,3,0,0,1-1.3.59c-.06-.33-.23-.46-.49-.39q-14.69,30.35-18.35,44.63.19,1.89-3.28,3-4.56-1-4.66-3.17,2-10.11,11.9-31.24l5.06-12.4h-.39a2.81,2.81,0,0,1-1.39-.3c-.6.07-.86.23-.8.5l-5.35.1-8.34.69c-.32,0-.49-.13-.49-.4l-.89.5-2.58.2c-.33.07-.5-.07-.5-.4l-.89.59-1.69.1c-.33.07-.49-.06-.49-.39l-.9.49-.89.1a3.11,3.11,0,0,1-1.78-.3.48.48,0,0,0-.4.5q-30.36,2.69-31.25-7.44-.48-5.55,16.87-10.42A74.62,74.62,0,0,1,400,987.16q3.57-.4,6.94,3.37l.2,1.79c0,.53-.83,1.19-2.48,2q-9.42.8-23,6.45v.39c3.3.4,5,.7,5,.89.33,0,.46-.16.39-.49a71.51,71.51,0,0,0,12.9-.2l2.68-.2c.26-.06.43.07.49.4a.47.47,0,0,0,.4-.5h5.26l10.61-1q4.37-.39,13.29-.69Q446.39,968.7,460,947.68q1.68-4.86,12.39-16.66a5,5,0,0,1,2.09-1.1" transform="translate(0 -1.38)"/><path d="M676.21,911q11.5,2.58,11.5,8.14,0,10.11-45.92,40.46-19.93,11.71-51.87,33.33h-.5v.5l.5,1.09a4.33,4.33,0,0,1,1.68-.5c.73,0,1.09.16,1.09.5l3.77-.5h3.27q26.49,0,33.93,11.4a32.82,32.82,0,0,1,1.09,5.46v.6q0,9.82-26.78,26.19a144.41,144.41,0,0,1-30.55,13.09l-11.51,2.77v-.59l-1.09.59h-3.27q-6.45,0-7.64-3.27v-2.78c0-.52.72-1,2.18-1.59a8.91,8.91,0,0,0,4.36,1.1q12,0,37.7-12.6,27.27-16.27,27.27-24.6v-2.18q0-3.76-14.77-7a.44.44,0,0,0-.5.49l-3.87-.49h-7.63a5,5,0,0,0-2.19.49.43.43,0,0,1-.49-.49,22.42,22.42,0,0,1-2.19.49q-11.6,0-18-5.45-3.57,4.17-13.69,19.64-1.78.88-11.41,19.14-3.06,10.43-8.22,10.42h-1.1c-1.46-.73-2.18-1.66-2.18-2.79q.69-11.19,30.55-52.36,22.82-29.57,55.74-55.25a213.72,213.72,0,0,1,25.2-15.77Q665,912.08,676.21,911m-93.93,76.48V988q2.87,0,43.14-26.78a268.45,268.45,0,0,0,45.34-32.24l7.13-9.22V918q-18.75,0-53.56,27.38Q594.59,971,582.28,987.46" transform="translate(0 -1.38)"/><path d="M673.63,1006.1c4.7,1.19,7,2.81,6.84,4.87a31,31,0,0,1-5.45,1l.1-.51q-15.07,3-22.82,12-8.13,10.32-8.43,13.79l-.1.89a7.31,7.31,0,0,0,2.88,6.55l1.39.1Q660.93,1046,676.7,1015c.07-.79,1.39-1.33,4-1.59q6.24.49,5.86,4.87l-.1,1q-2.59,2.57-7,14.77,0,.51.39.51l-1.28,4.25c-.07.33.06.5.39.5l-.69,2.39-.1,1.88q-.6,6.54,3.47,9.91c-.26,2.91-2.14,4.21-5.65,3.87q-7-2.78-6.35-10.22a19.32,19.32,0,0,1,0-5.75q-10.81,11.11-21.13,10.22l-1-.1q-13.1-5-12.3-13.59h.5l-.4-1q8.53-20.33,23.61-27.38a79.72,79.72,0,0,1,11.41-3.37l-.1.5Z" transform="translate(0 -1.38)"/><path d="M755.86,927c.52,0,1.75,1.22,3.67,3.67q0,2-8.93,12.1Q727.89,975,716,1002.53a79.16,79.16,0,0,0-4.26,10.52h.59q15.68-7.84,17.26-7.84h4.26c.54,0,1.06.53,1.6,1.59v2.57q-4.38,4.86-18.95,11.61,16,16.56,17.85,26.78a8.12,8.12,0,0,1,1.1,3.67,7.3,7.3,0,0,1-4.77,2.08q-3.55-.78-10-13.69-7.93-12.69-13.58-14.18a51,51,0,0,0-4.77,20.53c.34,1.06.7,1.59,1.09,1.59-.45,3.11-1.19,4.66-2.18,4.66h-1.48q-6.36,0-6.35-8.33,0-4.36,6.84-26.78,1.59-1.57,6.25-15.28,16.45-35.29,32-56.73A62.4,62.4,0,0,1,753.78,927Z" transform="translate(0 -1.38)"/><path d="M769.15,1005.81l3.17-.2q10.9,1.08,11.41,7,.28,3.76-10,14.48c-3.77,3.63-7.68,5.62-11.7,5.95l-.9.1c-1.25.07-3.74-1.09-7.44-3.47a20.44,20.44,0,0,0-2.18,7l.59.89a4.6,4.6,0,0,0-.39,1.38q1.77,7,7.34,6.55l1.89-.1q6.54-.6,19.14-12.5,5.25-4.07,6.84-4.26l.89-.1c.86-.06,1.56.93,2.09,3q-1,5.85-14,15.66a27.4,27.4,0,0,1-14.38,5.36l-.1-.5-.79.6q-16.08-3.16-17.16-15.17-1.2-13.59,17.85-28.67,5.66-2.78,7.84-3m-12.4,18.74.1.4,3.17.59h.5q7.53-2.77,13.69-12.89v-.49q-8.24,1.49-15,9a20,20,0,0,0-2.48,3.37" transform="translate(0 -1.38)"/><path d="M858.62,938a6,6,0,0,1,6.24,2.48l.3,1.39A77.74,77.74,0,0,0,854,960.58q-11.52,29.05-17.06,45.22-11.71,31.46-14.58,48.4l-1.79,2.59-.5.1q-4.46.39-4.86-1.89-.09-1,.31-6.44-.51.09-.6-.3l-4.17,2.08q-7.85,1.4-14.47-5.16a7,7,0,0,1-1.5-3.37l-.59-3.47q-2.49-13.78,12.49-29.46,6-3.37,9.73-4a60.09,60.09,0,0,1,12.59-.49q13.39-38.29,21.13-55.45,4.77-10.32,8.53-11m-56.24,101.17q1.1,5.65,7.24,4.57,10.32-5.46,9.32-11.11.6-.19,7.55-21.82a14.67,14.67,0,0,0-5.86.2h-.5l-3,1-.1-.4q-8.43,4-12.79,15a31,31,0,0,0-1.89,12.6" transform="translate(0 -1.38)"/><path class="cls-1" d="M915,531.26c-60.39,31.38-82.16-42.81-82.16-42.81H656.6S615.14,531.92,588,532.32c-25.14-1.64-58.46-27.54-58.46-27.54h-155L368,495.65s-38.52,27.45-48.7,27.63-49-6-81.24,2.53-21,52.25,11.36,58.36,67.15-30.68,67.15-30.68c70.55,12.76,55,58.5,55,58.5s25.11-1.36,448.31-7.37c6-8.32,25.16-19.77,42.23-28.88A77.21,77.21,0,0,1,920.91,570c11,3.34,22.63,6.7,30.29,8.36,78-12.32,75.68-33.26,41.83-57.58-25.43-3.3-51.61,2.11-78.06,10.46" transform="translate(0 -1.38)"/><path class="cls-2" d="M656.6,417.4S763.9,420,800,389.75c2,85.62,0,91.7,0,91.7H656.6s14.4-30.74,0-64.05" transform="translate(0 -1.38)"/><path class="cls-2" d="M493.45,289.86s3.31,8.35,0,8.81c-13.91,1.95-58.14,1.33-87.26,27.52-52.39,47.13,27.1,114.91,27.1,114.91s-47.15,6.13-83.64-40.79c-37.15-47.78,37-168.81,143.8-110.45" transform="translate(0 -1.38)"/><path class="cls-2" d="M500.25,299.63s-14.51-4.09-7.17-14.82c25.16-36.74,106.6-121.32,170.06-126.08,82-6.15,90.66,66.41,68.11,126.08,51.13-7.54,104.68-35.18,136.6,8.6S800,403.61,800,403.61l6.54-34s-117,34.16-170.63-15.14c36.37-28.58,34.84-115.84-135.64-54.8" transform="translate(0 -1.38)"/><path class="cls-3" d="M535.17,373.14s-30.65-49.34-95.23-39.46S506.71,499.92,588.81,520.8c49.8-48.63,58-91.87,59.65-130.18-62.93-10.39-81.54-36.11-82.09-70.86,0,0-31.75,27.69-31.2,53.38" transform="translate(0 -1.38)"/><path d="M415.85,454.38c-23.13,0-52.85-8.23-74.89-43.09-18.31-29-20.12-64.3-5-97,14.7-31.72,42.74-54.81,71.44-58.83,55.26-7.76,91.89,33.2,93.42,35a6.54,6.54,0,0,1-9.82,8.63c-.32-.37-33.62-37.34-81.78-30.63-24.42,3.42-48.51,23.59-61.39,51.38-13.24,28.57-11.72,59.37,4.16,84.49,35.45,56.07,92.3,32.55,94.7,31.53a6.54,6.54,0,0,1,5.19,12,100.86,100.86,0,0,1-36,6.56" transform="translate(0 -1.38)"/><path d="M487.63,293.41a6.37,6.37,0,0,1-3-.73,6.53,6.53,0,0,1-2.83-8.8c2.17-4.21,54-103.41,144.8-130.87,83.16-25.17,136.15,11.23,147.19,45.12,11.63,35.68-29.15,88.53-30.89,90.77a6.54,6.54,0,0,1-10.32-8c10.67-13.7,36.64-54.54,28.78-78.67-9.13-28-57.07-59-131-36.66C545,191.36,494,288.88,493.45,289.86a6.53,6.53,0,0,1-5.82,3.55" transform="translate(0 -1.38)"/><path d="M802.09,423.94a6.54,6.54,0,0,1-2-12.77c13.32-4.24,79.54-28.18,74-84-2.07-20.7-10.46-37.14-25-48.86-33.51-27.1-89.07-21.25-89.63-21.2a6.54,6.54,0,0,1-1.47-13c2.49-.28,61.46-6.55,99.27,24,17.35,14,27.37,33.44,29.81,57.77,6.58,65.84-68,93-83,97.74a6.44,6.44,0,0,1-2,.31" transform="translate(0 -1.38)"/><path d="M585.75,532.7a6.36,6.36,0,0,1-2.07-.33c-140.63-46.74-195.49-119.8-186.95-167.9,4.78-27,28.55-43,61.92-42,33.92-1.16,60.09,21.28,72.91,35,6.15-19.55,20.24-45.56,52.47-61.67,31-15.52,63.21-14.4,74.87,2.6,5.1,7.43,12.78,28.54-26,63.87-17.45,15.88-42.94,28.42-75.8,37.25a6.54,6.54,0,0,1-3.39-12.63c30.82-8.28,54.5-19.82,70.37-34.29,25.46-23.2,29.1-39.39,24-46.8-6.74-9.81-30.91-12-58.23,1.69-35,17.47-45.5,48.34-48.68,65.17a6.53,6.53,0,0,1-5,5.17,6.6,6.6,0,0,1-6.73-2.57c-.3-.41-29.94-41.12-70.79-39.71-27.31-.76-45.44,10.88-49.06,31.26-6.3,35.48,35.44,105.15,175.91,152.44,10.68-4.74,59.2-30.74,58.1-111.31a6.54,6.54,0,0,1,6.45-6.63,6.33,6.33,0,0,1,6.63,6.45C658,506,590.82,531.29,588,532.32a6.71,6.71,0,0,1-2.21.38" transform="translate(0 -1.38)"/><path d="M698.68,403.62c-52.15,0-87-22.95-92.31-26.63-13.8-6.2-37-25.56-30.28-56.9,3.33-15.51,13.68-27,29.15-32.37,17-5.91,38.08-3.5,49.06,5.57A6.54,6.54,0,0,1,646,303.38c-6.56-5.43-22.78-8.05-36.44-3.31-7.77,2.7-17.66,8.84-20.65,22.77C582.6,352,611,364.73,612.2,365.26a7.65,7.65,0,0,1,1.28.72c.45.35,47.25,33.72,114.33,22,67.9-11.9,99.43-38.16,99.74-38.43a6.54,6.54,0,0,1,8.51,9.93c-1.36,1.17-34.21,28.81-106,41.38a181.92,181.92,0,0,1-31.39,2.76" transform="translate(0 -1.38)"/><path d="M800,481.45a6.54,6.54,0,0,1-6.54-6.54V373.13a6.54,6.54,0,0,1,13.08,0V474.91a6.54,6.54,0,0,1-6.54,6.54" transform="translate(0 -1.38)"/><path d="M838.75,617.69H367.63a6.55,6.55,0,0,1-5.94-3.79c-9.13-19.76-23.82-35-44.83-46.5-8.17,4.19-30.67,15.15-50.51,19.45-25.58,5.54-43.92,1.74-78.89-34.93a6.52,6.52,0,0,1-1.36-6.87c11.28-29,47.94-53.49,80.13-42.77a394.52,394.52,0,0,0,53.6,13.33c16.26-3.95,32.06-16,49.62-37.8a6.54,6.54,0,0,1,5.09-2.44H485.85a6.54,6.54,0,0,1,0,13.08H377.65c-19.21,23.24-37.13,36.05-56.22,40.22a7,7,0,0,1-2.42.07,400.33,400.33,0,0,1-56.91-14c-23.65-7.89-51.59,9.87-62.16,31.33,31.48,32.14,45.19,32.05,63.64,28.05,22.44-4.86,49.9-19.67,50.18-19.82a6.56,6.56,0,0,1,6.12-.06c23.56,12.17,41,29.13,51.84,50.42H835.65c19.21-23.25,37.13-36.05,56.22-40.21a6.47,6.47,0,0,1,2.4-.07,392.54,392.54,0,0,1,56.93,14c23.69,7.87,51.61-9.9,62.14-31.38-31.45-32.09-45.16-32-63.62-28-22.42,4.86-49.92,19.64-50.19,19.79a6.6,6.6,0,0,1-6.11.06c-23.56-12.14-41-29.08-51.85-50.39H634.66a6.54,6.54,0,0,1,0-13.08h211a6.55,6.55,0,0,1,5.94,3.79c9.14,19.77,23.83,35,44.84,46.47,8.16-4.18,30.66-15.12,50.51-19.42,25.57-5.54,43.91-1.74,78.87,34.89a6.54,6.54,0,0,1,1.38,6.88c-11.28,29-48,53.52-80.14,42.8a389.5,389.5,0,0,0-53.59-13.33c-16.25,3.94-32.06,16-49.62,37.8a6.57,6.57,0,0,1-5.1,2.44" transform="translate(0 -1.38)"/><path class="cls-4" d="M446.74,570.64H379.68a6.54,6.54,0,1,1,0-13.07h67.06a6.54,6.54,0,1,1,0,13.07" transform="translate(0 -1.38)"/><path class="cls-4" d="M410.9,516.74H370.83v13.08H410.9a6.54,6.54,0,0,0,0-13.08" transform="translate(0 -1.38)"/><path d="M380.25,595.81a6.53,6.53,0,0,1-6-3.91c-26.62-60.75-.91-110.93.2-113A6.54,6.54,0,0,1,386,484.94c-.24.47-23.82,46.92.2,101.7a6.55,6.55,0,0,1-6,9.17" transform="translate(0 -1.38)"/><path class="cls-4" d="M827.91,488.54a127.67,127.67,0,0,1,7.6,68,6.54,6.54,0,1,0,12.91,2.13,140.74,140.74,0,0,0-6.5-70.09Z" transform="translate(0 -1.38)"/><path d="M848.43,564.11A6.56,6.56,0,0,1,842,556.5a127.34,127.34,0,0,0-9.16-72,6.54,6.54,0,0,1,12-5.26,140.37,140.37,0,0,1,10.08,79.35,6.54,6.54,0,0,1-6.44,5.48" transform="translate(0 -1.38)"/><path d="M468.27,181.73a4.92,4.92,0,1,1-4.91-4.92,4.91,4.91,0,0,1,4.91,4.92" transform="translate(0 -1.38)"/><path d="M558,142.2a7.38,7.38,0,1,1-7.37-7.37A7.37,7.37,0,0,1,558,142.2" transform="translate(0 -1.38)"/><path d="M635.89,64.53a7.38,7.38,0,1,1-7.38-7.37,7.37,7.37,0,0,1,7.38,7.37" transform="translate(0 -1.38)"/><path d="M338.86,239.66a20.55,20.55,0,1,1-20.55-20.55,20.56,20.56,0,0,1,20.55,20.55" transform="translate(0 -1.38)"/><path d="M724,109a6.32,6.32,0,1,1-6.32-6.32A6.32,6.32,0,0,1,724,109" transform="translate(0 -1.38)"/><path d="M842.86,196.74a19.93,19.93,0,1,1-19.93-19.93,19.94,19.94,0,0,1,19.93,19.93" transform="translate(0 -1.38)"/><path d="M960,283.66a15,15,0,1,1-15-15,15,15,0,0,1,15,15" transform="translate(0 -1.38)"/><path d="M307.32,464.57A16.56,16.56,0,1,1,290.76,448a16.55,16.55,0,0,1,16.56,16.56" transform="translate(0 -1.38)"/><path d="M364.92,110.71a1.7,1.7,0,1,1-1.69-1.7,1.7,1.7,0,0,1,1.69,1.7" transform="translate(0 -1.38)"/><path d="M594.4,12.42a11,11,0,1,1-11-11,11,11,0,0,1,11,11" transform="translate(0 -1.38)"/><path d="M402.41,194.54a7.9,7.9,0,1,1-7.89-7.9,7.9,7.9,0,0,1,7.89,7.9" transform="translate(0 -1.38)"/><path d="M892.77,166.88a5.91,5.91,0,1,1-5.9-5.9,5.91,5.91,0,0,1,5.9,5.9" transform="translate(0 -1.38)"/><path d="M870.22,425.32a7.92,7.92,0,1,1-7.92-7.91,7.92,7.92,0,0,1,7.92,7.91" transform="translate(0 -1.38)"/><path d="M921.18,363.83a9.31,9.31,0,1,1-9.31-9.3,9.31,9.31,0,0,1,9.31,9.3" transform="translate(0 -1.38)"/><path d="M238.06,309.21a10.54,10.54,0,1,1-10.54-10.54,10.54,10.54,0,0,1,10.54,10.54" transform="translate(0 -1.38)"/><path class="cls-4" d="M836.24,500.1H724.5a6.54,6.54,0,0,0,0,13.07H836.24Z" transform="translate(0 -1.38)"/><path d="M848,520.8H715a6.54,6.54,0,0,1,0-13.08H848a6.54,6.54,0,1,1,0,13.08" transform="translate(0 -1.38)"/><path class="cls-4" d="M839.52,545.19H793.41a6.54,6.54,0,1,0,0,13.08h46.11Z" transform="translate(0 -1.38)"/><path d="M850.06,548.62H783a6.54,6.54,0,0,1,0-13.08h67.06a6.54,6.54,0,0,1,0,13.08" transform="translate(0 -1.38)"/><path d="M441.6,564.1H374.54a6.54,6.54,0,0,1,0-13.07H441.6a6.54,6.54,0,1,1,0,13.07" transform="translate(0 -1.38)"/><path d="M405.1,536.35H371.52a6.54,6.54,0,1,1,0-13.07H405.1a6.54,6.54,0,1,1,0,13.07" transform="translate(0 -1.38)"/></svg>