<svg id="Isolation_Mode" data-name="Isolation Mode" xmlns="http://www.w3.org/2000/svg" viewBox="0 0 317.22 178.23">
	<defs>
		<style>
			.cls-1{fill:#f6f8f7;}
			path { fill: #f6f8f7}
		</style>
	</defs>
	<path d="M88.38,117.16c-8.72,0-19.91-3.1-28.22-16.23C53.27,90,52.58,76.7,58.29,64.39c5.53-12,16.1-20.65,26.91-22.17C106,39.3,119.82,54.73,120.4,55.39a2.46,2.46,0,0,1-3.7,3.25C116.58,58.5,104,44.57,85.89,47.1,76.69,48.39,67.61,56,62.76,66.46c-5,10.76-4.42,22.37,1.57,31.83C77.68,119.42,99.1,110.56,100,110.17a2.46,2.46,0,0,1,1.95,4.52,37.89,37.89,0,0,1-13.58,2.47" transform="translate(-1.65 -0.46)"/>
	<path d="M115.42,56.52a2.38,2.38,0,0,1-1.12-.28,2.46,2.46,0,0,1-1.07-3.31c.82-1.59,20.36-39,54.56-49.31,31.33-9.48,51.29,4.23,55.45,17,4.38,13.44-11,33.35-11.64,34.2a2.46,2.46,0,0,1-3.88-3c4-5.17,13.8-20.55,10.84-29.64-3.44-10.56-21.5-22.24-49.35-13.81C137,18.07,117.8,54.81,117.61,55.18a2.46,2.46,0,0,1-2.19,1.34" transform="translate(-1.65 -0.46)"/>
	<path d="M233.9,105.7a2.47,2.47,0,0,1-.75-4.82c5-1.59,30-10.62,27.87-31.64-.78-7.8-3.95-14-9.41-18.41-12.62-10.21-33.55-8-33.77-8a2.47,2.47,0,0,1-.55-4.9c.94-.11,23.16-2.47,37.4,9,6.54,5.27,10.31,12.6,11.23,21.76,2.48,24.81-25.62,35-31.28,36.83a2.43,2.43,0,0,1-.74.12" transform="translate(-1.65 -0.46)"/>
	<path d="M152.39,146.67a2.54,2.54,0,0,1-.78-.12c-53-17.61-73.65-45.14-70.44-63.26C83,73.13,91.93,67.08,104.5,67.45c12.78-.44,22.64,8,27.47,13.18a38.25,38.25,0,0,1,19.77-23.24c11.69-5.84,23.81-5.42,28.21,1,1.92,2.8,4.81,10.76-9.79,24.07-6.57,6-16.18,10.71-28.56,14a2.46,2.46,0,0,1-1.28-4.76c11.62-3.12,20.54-7.47,26.52-12.92,9.59-8.74,11-14.84,9-17.63-2.54-3.7-11.64-4.51-21.93.64A34,34,0,0,0,135.6,86.35a2.45,2.45,0,0,1-1.88,2,2.49,2.49,0,0,1-2.54-1c-.11-.15-11.28-15.49-26.67-15C94.22,72.08,87.39,76.47,86,84.15c-2.38,13.37,13.35,39.61,66.27,57.43,4-1.79,22.3-11.58,21.89-41.94a2.45,2.45,0,0,1,2.43-2.49,2.39,2.39,0,0,1,2.5,2.43c.5,37-24.82,46.56-25.9,47a2.63,2.63,0,0,1-.83.14" transform="translate(-1.65 -0.46)"/>
	<path d="M194.93,98c-19.64,0-32.79-8.65-34.77-10-5.2-2.33-13.95-9.62-11.41-21.43a16.2,16.2,0,0,1,11-12.2c6.4-2.22,14.35-1.32,18.48,2.1a2.46,2.46,0,0,1-3.13,3.8c-2.48-2-8.59-3-13.73-1.24a11.32,11.32,0,0,0-7.78,8.57c-2.37,11,8.33,15.79,8.78,16a2.48,2.48,0,0,1,.48.27c.18.13,17.81,12.7,43.08,8.29,25.58-4.49,37.46-14.38,37.58-14.48a2.46,2.46,0,0,1,3.2,3.74c-.51.44-12.88,10.85-39.93,15.59a68.24,68.24,0,0,1-11.83,1" transform="translate(-1.65 -0.46)"/>
	<path d="M233.1,127.36a2.46,2.46,0,0,1-2.46-2.46V86.55a2.46,2.46,0,0,1,4.92,0V124.9a2.46,2.46,0,0,1-2.46,2.46" transform="translate(-1.65 -0.46)"/>
	<path d="M247.71,178.69H70.21A2.48,2.48,0,0,1,68,177.26c-3.44-7.44-9-13.18-16.89-17.52-3.08,1.58-11.55,5.71-19,7.33-9.64,2.09-16.54.66-29.72-13.16a2.45,2.45,0,0,1-.51-2.59C6.07,140.38,19.88,131.17,32,135.21a147.91,147.91,0,0,0,20.19,5c6.13-1.49,12.08-6,18.7-14.24a2.45,2.45,0,0,1,1.91-.92h41.94a2.47,2.47,0,0,1,0,4.93H74c-7.23,8.76-14,13.58-21.17,15.15a2.84,2.84,0,0,1-.92,0,151.91,151.91,0,0,1-21.44-5.29c-8.91-3-19.44,3.72-23.42,11.8,11.86,12.11,17,12.07,24,10.57,8.45-1.84,18.8-7.41,18.9-7.47a2.45,2.45,0,0,1,2.31,0c8.88,4.58,15.44,11,19.53,19H246.54c7.24-8.76,14-13.58,21.18-15.15a2.48,2.48,0,0,1,.9,0,146.91,146.91,0,0,1,21.45,5.29c8.93,3,19.45-3.73,23.42-11.82-11.86-12.09-17-12.06-24-10.55-8.44,1.83-18.8,7.39-18.9,7.45a2.48,2.48,0,0,1-2.31,0c-8.87-4.57-15.44-10.95-19.53-19h-78a2.47,2.47,0,1,1,0-4.93h79.49a2.48,2.48,0,0,1,2.24,1.43c3.44,7.45,9,13.18,16.89,17.51,3.08-1.58,11.55-5.7,19-7.32,9.63-2.09,16.55-.66,29.72,13.14a2.46,2.46,0,0,1,.51,2.6c-4.24,10.94-18.06,20.16-30.19,16.12a147.41,147.41,0,0,0-20.19-5c-6.12,1.49-12.08,6-18.69,14.24a2.48,2.48,0,0,1-1.92.92" transform="translate(-1.65 -0.46)"/>
	<path class="cls-1" d="M100,161H74.75a2.47,2.47,0,0,1,0-4.93H100a2.47,2.47,0,0,1,0,4.93" transform="translate(-1.65 -0.46)"/>
	<path class="cls-1" d="M86.51,140.66H71.42v4.92H86.51a2.46,2.46,0,0,0,0-4.92" transform="translate(-1.65 -0.46)"/>
	<path d="M75,170.45A2.46,2.46,0,0,1,72.71,169c-10-22.88-.34-41.79.07-42.58a2.47,2.47,0,1,1,4.37,2.29A47.43,47.43,0,0,0,77.22,167,2.46,2.46,0,0,1,76,170.24a2.43,2.43,0,0,1-1,.21" transform="translate(-1.65 -0.46)"/>
	<path class="cls-1" d="M243.62,130a48.18,48.18,0,0,1,2.87,25.61,2.47,2.47,0,0,0,2,2.83,2.69,2.69,0,0,0,.4,0,2.46,2.46,0,0,0,2.43-2.06A53.12,53.12,0,0,0,248.9,130Z" transform="translate(-1.65 -0.46)"/>
	<path d="M251.35,158.5l-.4,0a2.47,2.47,0,0,1-2-2.83,48,48,0,0,0-3.45-27.11,2.46,2.46,0,1,1,4.51-2,52.88,52.88,0,0,1,3.8,29.89,2.46,2.46,0,0,1-2.43,2.06" transform="translate(-1.65 -0.46)"/>
	<path class="cls-1" d="M246.76,134.39h-42.1a2.46,2.46,0,0,0,0,4.92h42.1Z" transform="translate(-1.65 -0.46)"/>
	<path d="M251.21,142.19H201.07a2.47,2.47,0,0,1,0-4.93h50.14a2.47,2.47,0,0,1,0,4.93" transform="translate(-1.65 -0.46)"/>
	<path class="cls-1" d="M248,151.38H230.63a2.46,2.46,0,1,0,0,4.92H248Z" transform="translate(-1.65 -0.46)"/>
	<path d="M252,152.67H226.7a2.47,2.47,0,0,1,0-4.93H252a2.47,2.47,0,0,1,0,4.93" transform="translate(-1.65 -0.46)"/>
	<path d="M98.08,158.5H72.81a2.46,2.46,0,1,1,0-4.92H98.08a2.46,2.46,0,1,1,0,4.92" transform="translate(-1.65 -0.46)"/>
	<path d="M84.33,148.05H71.68a2.47,2.47,0,1,1,0-4.93H84.33a2.47,2.47,0,0,1,0,4.93" transform="translate(-1.65 -0.46)"/></svg>