<svg id="Layer_1" data-name="Layer 1" xmlns="http://www.w3.org/2000/svg" viewBox="0 0 461.8 127.67"><defs><style>.cls-1{fill:#fed099;}.cls-2{fill:#22b6b4;}.cls-3{fill:#f57b92;}.cls-4{fill:#fff;}.cls-5{fill:none;stroke:#000;stroke-miterlimit:10;stroke-width:2px;}</style></defs><path class="cls-1" d="M151.08,111.05c-12.51,6.5-17-8.87-17-8.87H97.55s-8.58,9-14.21,9.09c-5.21-.34-12.11-5.7-12.11-5.7H39.12l-1.35-1.9s-8,5.69-10.08,5.73-10.15-1.24-16.83.52S6.51,120.75,13.21,122s13.91-6.35,13.91-6.35c14.61,2.64,11.39,12.11,11.39,12.11s5.2-.28,92.86-1.52c1.25-1.72,5.22-4.1,8.75-6a16,16,0,0,1,12.19-1.19c2.27.69,4.68,1.39,6.27,1.73,16.15-2.55,15.68-6.89,8.67-11.93-5.27-.68-10.7.44-16.17,2.17" transform="translate(0 -1.29)"/><path class="cls-2" d="M97.55,87.47s22.23.54,29.71-5.73c.41,17.73,0,19,0,19H97.55a17.37,17.37,0,0,0,0-13.26" transform="translate(0 -1.29)"/><path class="cls-2" d="M63.76,61.05s.68,1.73,0,1.82c-2.88.41-12,.28-18.08,5.7C34.83,78.33,51.3,92.38,51.3,92.38S41.53,93.65,34,83.93C26.28,74,41.63,49,63.76,61.05" transform="translate(0 -1.29)"/><path class="cls-2" d="M65.17,63.07s-3-.85-1.49-3.07c5.21-7.61,22.09-25.13,35.23-26.12,17-1.27,18.78,13.76,14.11,26.12,10.59-1.56,21.68-7.29,28.3,1.78s-14.06,22.83-14.06,22.83l1.35-7s-24.23,7.07-35.35-3.14c7.54-5.92,7.22-24-28.09-11.35" transform="translate(0 -1.29)"/><path class="cls-3" d="M72.4,78.3a19.9,19.9,0,0,0-19.73-8.18c-13.37,2,13.84,34.44,30.84,38.76,10.32-10.07,12-19,12.36-27-13-2.15-16.89-7.48-17-14.68,0,0-6.57,5.74-6.46,11.06" transform="translate(0 -1.29)"/><path d="M47.69,95.13c-4.8,0-10.95-1.71-15.52-8.93a20.68,20.68,0,0,1-1-20.09c3-6.57,8.85-11.35,14.8-12.19,11.44-1.6,19,6.88,19.35,7.24a1.35,1.35,0,1,1-2,1.79c-.07-.08-7-7.73-16.94-6.35-5.06.71-10,4.89-12.72,10.65a18,18,0,0,0,.86,17.5c7.34,11.62,19.12,6.74,19.62,6.53a1.36,1.36,0,0,1,1.07,2.49,20.88,20.88,0,0,1-7.46,1.36" transform="translate(0 -1.29)"/><path d="M62.55,61.78a1.31,1.31,0,0,1-.61-.15,1.35,1.35,0,0,1-.59-1.82c.45-.87,11.19-21.42,30-27.11,17.23-5.22,28.21,2.33,30.49,9.35,2.41,7.39-6,18.33-6.39,18.8a1.36,1.36,0,0,1-2.14-1.67c2.21-2.84,7.59-11.3,6-16.3-1.89-5.8-11.82-12.22-27.13-7.59C74.44,40.64,63.86,60.84,63.76,61.05a1.37,1.37,0,0,1-1.21.73" transform="translate(0 -1.29)"/><path d="M127.69,88.82a1.37,1.37,0,0,1-1.29-.94,1.35,1.35,0,0,1,.88-1.7c2.76-.88,16.48-5.84,15.33-17.4a14.28,14.28,0,0,0-5.18-10.12c-6.94-5.62-18.45-4.4-18.56-4.39a1.36,1.36,0,0,1-.31-2.7c.52,0,12.73-1.35,20.57,5a16.91,16.91,0,0,1,6.17,12c1.36,13.64-14.09,19.26-17.2,20.25a1.4,1.4,0,0,1-.41.06" transform="translate(0 -1.29)"/><path d="M82.88,111.35a1.25,1.25,0,0,1-.43-.07C53.32,101.6,42,86.47,43.72,76.5c1-5.58,5.92-8.91,12.83-8.71,7-.24,12.45,4.41,15.1,7.25A21.08,21.08,0,0,1,82.52,62.26c6.43-3.21,13.1-3,15.51.54,1.06,1.54,2.65,5.92-5.38,13.23C89,79.32,83.75,81.92,77,83.75a1.36,1.36,0,1,1-.7-2.62C82.63,79.42,87.54,77,90.82,74c5.28-4.81,6-8.16,5-9.69-1.4-2-6.41-2.48-12.07.35a18.69,18.69,0,0,0-10.08,13.5,1.35,1.35,0,0,1-2.43.53c-.06-.08-6.2-8.51-14.67-8.22-5.65-.16-9.41,2.25-10.16,6.48-1.3,7.34,7.34,21.78,36.44,31.57,2.21-1,12.26-6.37,12-23.06a1.35,1.35,0,0,1,1.33-1.37,1.32,1.32,0,0,1,1.38,1.34c.27,20.36-13.65,25.6-14.24,25.81a1.48,1.48,0,0,1-.46.08" transform="translate(0 -1.29)"/><path d="M106.27,84.61a34.73,34.73,0,0,1-19.12-5.52c-2.86-1.28-7.67-5.29-6.27-11.78a8.92,8.92,0,0,1,6-6.71c3.51-1.22,7.88-.72,10.16,1.16a1.34,1.34,0,0,1,.18,1.9,1.36,1.36,0,0,1-1.91.19c-1.36-1.13-4.72-1.67-7.55-.69a6.25,6.25,0,0,0-4.27,4.72c-1.3,6,4.58,8.68,4.83,8.79a1.35,1.35,0,0,1,.26.15,33.32,33.32,0,0,0,23.69,4.55c14.06-2.46,20.59-7.9,20.66-8a1.35,1.35,0,0,1,1.76,2.06c-.28.24-7.09,6-22,8.57a37.54,37.54,0,0,1-6.5.57" transform="translate(0 -1.29)"/><path d="M127.26,100.73a1.35,1.35,0,0,1-1.36-1.35V78.3a1.36,1.36,0,1,1,2.71,0V99.38a1.35,1.35,0,0,1-1.35,1.35" transform="translate(0 -1.29)"/><path d="M135.29,129H37.7a1.35,1.35,0,0,1-1.23-.79,20.77,20.77,0,0,0-9.29-9.63,48.23,48.23,0,0,1-10.46,4c-5.3,1.15-9.1.36-16.35-7.24a1.35,1.35,0,0,1-.28-1.42c2.34-6,9.93-11.08,16.6-8.86a82.69,82.69,0,0,0,11.1,2.76c3.37-.82,6.64-3.31,10.28-7.83a1.36,1.36,0,0,1,1.06-.5h23a1.35,1.35,0,1,1,0,2.7H39.77c-4,4.82-7.69,7.47-11.64,8.34a1.68,1.68,0,0,1-.5,0,82.26,82.26,0,0,1-11.79-2.91c-4.9-1.64-10.69,2-12.88,6.49,6.52,6.66,9.36,6.64,13.18,5.81a48.18,48.18,0,0,0,10.4-4.11,1.37,1.37,0,0,1,1.26,0,24.05,24.05,0,0,1,10.74,10.45h96.1c4-4.82,7.7-7.47,11.65-8.33a1.4,1.4,0,0,1,.5,0,82.6,82.6,0,0,1,11.79,2.91c4.91,1.63,10.69-2,12.87-6.5-6.51-6.64-9.35-6.63-13.18-5.8a48.76,48.76,0,0,0-10.39,4.1,1.36,1.36,0,0,1-1.27,0,23.93,23.93,0,0,1-10.74-10.44H93a1.35,1.35,0,1,1,0-2.7h43.71a1.34,1.34,0,0,1,1.23.78,20.67,20.67,0,0,0,9.29,9.63,48.23,48.23,0,0,1,10.46-4c5.3-1.14,9.1-.36,16.34,7.23a1.35,1.35,0,0,1,.28,1.42c-2.33,6-9.93,11.09-16.6,8.87a81.45,81.45,0,0,0-11.1-2.76c-3.36.82-6.64,3.31-10.28,7.83a1.35,1.35,0,0,1-1.05.51" transform="translate(0 -1.29)"/><path class="cls-4" d="M54.08,119.21H40.19a1.36,1.36,0,0,1,0-2.71H54.08a1.36,1.36,0,1,1,0,2.71" transform="translate(0 -1.29)"/><path class="cls-4" d="M46.66,108h-8.3v2.71h8.3a1.36,1.36,0,0,0,0-2.71" transform="translate(0 -1.29)"/><path d="M40.31,124.42a1.35,1.35,0,0,1-1.24-.81,28.32,28.32,0,0,1,0-23.41,1.36,1.36,0,0,1,2.4,1.26,26.1,26.1,0,0,0,0,21.06,1.36,1.36,0,0,1-.7,1.79,1.27,1.27,0,0,1-.54.11" transform="translate(0 -1.29)"/><path class="cls-4" d="M133,102.2a26.48,26.48,0,0,1,1.58,14.08,1.34,1.34,0,0,0,1.11,1.56l.22,0a1.36,1.36,0,0,0,1.34-1.14,29.21,29.21,0,0,0-1.35-14.52Z" transform="translate(0 -1.29)"/><path d="M137.29,117.86l-.22,0a1.36,1.36,0,0,1-1.12-1.56,26.4,26.4,0,0,0-1.89-14.91,1.35,1.35,0,1,1,2.48-1.08,29.14,29.14,0,0,1,2.09,16.43,1.36,1.36,0,0,1-1.34,1.14" transform="translate(0 -1.29)"/><path d="M58.54,38.65a1,1,0,1,1-1-1,1,1,0,0,1,1,1" transform="translate(0 -1.29)"/><path d="M77.13,30.46a1.53,1.53,0,1,1-1.52-1.53,1.53,1.53,0,0,1,1.52,1.53" transform="translate(0 -1.29)"/><path d="M93.26,14.37a1.53,1.53,0,1,1-1.52-1.53,1.52,1.52,0,0,1,1.52,1.53" transform="translate(0 -1.29)"/><path d="M31.74,50.65a4.26,4.26,0,1,1-4.26-4.26,4.25,4.25,0,0,1,4.26,4.26" transform="translate(0 -1.29)"/><path d="M111.51,23.59a1.31,1.31,0,1,1-1.31-1.31,1.31,1.31,0,0,1,1.31,1.31" transform="translate(0 -1.29)"/><path d="M136.14,41.76A4.13,4.13,0,1,1,132,37.63a4.13,4.13,0,0,1,4.13,4.13" transform="translate(0 -1.29)"/><path d="M160.4,59.76a3.11,3.11,0,1,1-3.11-3.11,3.11,3.11,0,0,1,3.11,3.11" transform="translate(0 -1.29)"/><path d="M25.2,97.24a3.43,3.43,0,1,1-3.43-3.43,3.43,3.43,0,0,1,3.43,3.43" transform="translate(0 -1.29)"/><path d="M37.14,23.94a.36.36,0,0,1-.71,0,.36.36,0,0,1,.71,0" transform="translate(0 -1.29)"/><path d="M84.67,3.58a2.29,2.29,0,1,1-2.29-2.29,2.28,2.28,0,0,1,2.29,2.29" transform="translate(0 -1.29)"/><path d="M44.9,41.3a1.64,1.64,0,1,1-1.63-1.63A1.63,1.63,0,0,1,44.9,41.3" transform="translate(0 -1.29)"/><path d="M146.48,35.57a1.23,1.23,0,1,1-1.23-1.22,1.23,1.23,0,0,1,1.23,1.22" transform="translate(0 -1.29)"/><path d="M141.81,89.11a1.64,1.64,0,1,1-1.64-1.64,1.65,1.65,0,0,1,1.64,1.64" transform="translate(0 -1.29)"/><path d="M152.36,76.37a1.93,1.93,0,1,1-1.93-1.93,1.93,1.93,0,0,1,1.93,1.93" transform="translate(0 -1.29)"/><path d="M10.86,65.06a2.19,2.19,0,1,1-2.19-2.19,2.19,2.19,0,0,1,2.19,2.19" transform="translate(0 -1.29)"/><path class="cls-4" d="M134.77,104.6H111.62a1.36,1.36,0,0,0,0,2.71h23.15Z" transform="translate(0 -1.29)"/><path d="M137.21,108.88H109.65a1.35,1.35,0,1,1,0-2.7h27.56a1.35,1.35,0,1,1,0,2.7" transform="translate(0 -1.29)"/><path class="cls-4" d="M135.45,113.94H125.9a1.36,1.36,0,1,0,0,2.71h9.55Z" transform="translate(0 -1.29)"/><path d="M137.63,114.65H123.74a1.36,1.36,0,1,1,0-2.71h13.89a1.36,1.36,0,0,1,0,2.71" transform="translate(0 -1.29)"/><path d="M53,117.86H39.13a1.36,1.36,0,1,1,0-2.71H53a1.36,1.36,0,0,1,0,2.71" transform="translate(0 -1.29)"/><path d="M45.46,112.11h-7a1.36,1.36,0,0,1,0-2.71h7a1.36,1.36,0,0,1,0,2.71" transform="translate(0 -1.29)"/><path d="M189.05,76.11V44.57a.8.8,0,0,0-.41-.76,1.83,1.83,0,0,1-1.1-1.68,1.89,1.89,0,0,1,2-1.85h14.56a11.33,11.33,0,0,1,11.36,11.3,10,10,0,0,1-4.4,8.24,11,11,0,0,1-4.82,21.05H189a2,2,0,0,1-1.91-2,1.83,1.83,0,0,1,1.27-1.74,1.07,1.07,0,0,0,.7-1m17.16-14H192.76V75.88c0,.52-.11,1.1-.4,1.28h13.85a7.48,7.48,0,0,0,7.54-7.48,7.34,7.34,0,0,0-7.54-7.54M204.07,44h-11.6a1.51,1.51,0,0,1,.29,1.1V58.37H205c4.11,0,6.72-2.44,6.72-6.79A7.59,7.59,0,0,0,204.07,44" transform="translate(0 -1.29)"/><path d="M240.78,78.14a7.93,7.93,0,0,1-.12-1.74c-1.62,3-5.85,4.76-9.27,4.76-5.74,0-11.08-3.37-11.08-9.63,0-7.54,6.15-11,13.22-11a14.42,14.42,0,0,1,7.13,1.91V60.86a15,15,0,0,0-.34-3.42c-.93-2.55-4.24-3.31-7.6-3.31a22.87,22.87,0,0,0-6.67,1,3.78,3.78,0,0,1-.81.12,1.74,1.74,0,0,1-1.8-1.8,1.91,1.91,0,0,1,1.28-1.74,22.92,22.92,0,0,1,7.77-1.34c4.81,0,9.62,1.34,11.31,5.69a13.26,13.26,0,0,1,.58,4.64V76.58a.78.78,0,0,0,.4.75,1.82,1.82,0,0,1,1.1,1.68,2.15,2.15,0,0,1-2,2.15c-1.68,0-2.72-1.45-3.13-3m-.12-12.06a13.76,13.76,0,0,0-7.3-1.8c-4.7,0-9.34,2.09-9.34,7.19,0,4.12,3.77,6,7.48,6,4.29,0,9.16-2.79,9.16-7.54Z" transform="translate(0 -1.29)"/><path d="M250.23,79a1.83,1.83,0,0,1,1.11-1.68.78.78,0,0,0,.4-.75V42.71a.78.78,0,0,0-.4-.75,1.77,1.77,0,0,1-1.05-1.68,1.89,1.89,0,0,1,2-1.86c2.15,0,3.19,1.86,3.19,4.06V62.37l-.17,4.75h.06l4.29-4.75L268,54c.52-.52.11-1,0-1.62a1.66,1.66,0,0,1,1.8-1.63,2.36,2.36,0,0,1,2.26,2.38,4.15,4.15,0,0,1-1.33,3.31l-8.93,8.93,8.7,11.3a.85.85,0,0,0,.69.41c.24,0,.35-.12.64-.12a1.7,1.7,0,0,1,1.63,1.8,2.38,2.38,0,0,1-2.5,2.15,4.27,4.27,0,0,1-3.25-1.8L259.28,68l-3.83,3.77v5c0,2.2-1.1,4.06-3.24,4.06a1.9,1.9,0,0,1-2-1.86" transform="translate(0 -1.29)"/><path d="M278.07,67.65c.76,5.1,4.93,9.8,10.38,9.8,4.06,0,7-1.22,8.87-3.13a2,2,0,0,1,1.45-.58,1.85,1.85,0,0,1,1.86,1.73,1.87,1.87,0,0,1-.52,1.34c-2.61,2.78-6.38,4.35-11.66,4.35-8.35,0-14.15-7.19-14.15-15.43,0-7.88,5.8-15.31,14.15-15.31s14.27,7.37,14.27,15.31a2,2,0,0,1-2,1.92ZM299,63.94c-.7-5.17-5.05-9.8-10.5-9.8s-9.8,4.63-10.38,9.8Z" transform="translate(0 -1.29)"/><path d="M330.67,76.81V75.3a11.82,11.82,0,0,1-10.21,5.57h-.52c-7.65,0-13.28-7.19-13.28-15.43s5.8-14.73,13.8-14.73c3.89,0,8.47,1.86,10.21,5.4V42.48c0-2.2,1.1-4.06,3.25-4.06a1.89,1.89,0,0,1,2,1.86,1.84,1.84,0,0,1-1.1,1.68.78.78,0,0,0-.41.75V76.58a.78.78,0,0,0,.41.75,1.84,1.84,0,0,1,1.1,1.68,1.9,1.9,0,0,1-2,1.86c-2.15,0-3.25-1.86-3.25-4.06M320.52,54.37c-6.2,0-10.14,5.22-10.14,11.07s3.88,11.72,10.14,11.72,10.15-5.92,10.15-11.77-4.12-11-10.15-11" transform="translate(0 -1.29)"/><path d="M343.14,60.63c0-11,9.16-20.7,20.47-20.7a21.62,21.62,0,0,1,10,2.44,1.93,1.93,0,0,1,.93,1.68A1.88,1.88,0,0,1,372.71,46a2.68,2.68,0,0,1-.87-.23,16.92,16.92,0,1,0-8.06,31.78,16.61,16.61,0,0,0,9.11-2.67,1.79,1.79,0,0,1,1-.29,1.89,1.89,0,0,1,1,3.48,21.13,21.13,0,0,1-11.14,3.19,20.76,20.76,0,0,1-20.64-20.59" transform="translate(0 -1.29)"/><path d="M398,78.14a8.64,8.64,0,0,1-.11-1.74c-1.63,3-5.86,4.76-9.28,4.76-5.74,0-11.08-3.37-11.08-9.63,0-7.54,6.15-11,13.22-11a14.49,14.49,0,0,1,7.14,1.91V60.86a14.89,14.89,0,0,0-.35-3.42c-.93-2.55-4.24-3.31-7.6-3.31a22.87,22.87,0,0,0-6.67,1,3.78,3.78,0,0,1-.81.12,1.74,1.74,0,0,1-1.8-1.8,1.93,1.93,0,0,1,1.28-1.74,23,23,0,0,1,7.77-1.34c4.81,0,9.63,1.34,11.31,5.69a13.26,13.26,0,0,1,.58,4.64V76.58a.78.78,0,0,0,.4.75A1.82,1.82,0,0,1,403.1,79a2.15,2.15,0,0,1-2,2.15c-1.68,0-2.72-1.45-3.13-3m-.11-12.06a13.8,13.8,0,0,0-7.31-1.8c-4.7,0-9.34,2.09-9.34,7.19,0,4.12,3.77,6,7.48,6,4.29,0,9.17-2.79,9.17-7.54Z" transform="translate(0 -1.29)"/><path d="M408.09,79a1.83,1.83,0,0,1,1.11-1.68.78.78,0,0,0,.4-.75V54.42h-2A1.75,1.75,0,0,1,406,52.57a1.79,1.79,0,0,1,1.85-1.86h1.74V48.16c0-5.16,2.38-9.74,8.53-9.74a14.44,14.44,0,0,1,4.4.7,1.94,1.94,0,0,1,1.4,1.85,2,2,0,0,1-2.5,1.8,12.78,12.78,0,0,0-3.3-.64c-3.6,0-4.82,2-4.82,6v2.55h7.54a1.84,1.84,0,0,1,1.86,1.86,1.75,1.75,0,0,1-1.63,1.85h-7.77V76.81c0,2.2-1.1,4.06-3.24,4.06a1.9,1.9,0,0,1-2-1.86" transform="translate(0 -1.29)"/><path d="M426.65,67.65c.76,5.1,4.93,9.8,10.38,9.8,4.06,0,7-1.22,8.88-3.13a2,2,0,0,1,1.44-.58,1.8,1.8,0,0,1,1.34,3.07c-2.61,2.78-6.38,4.35-11.66,4.35-8.35,0-14.15-7.19-14.15-15.43,0-7.88,5.8-15.31,14.15-15.31s14.27,7.37,14.27,15.31a2,2,0,0,1-2,1.92Zm20.88-3.71c-.7-5.17-5-9.8-10.5-9.8s-9.8,4.63-10.38,9.8Z" transform="translate(0 -1.29)"/><path d="M457.56,43.7a2.44,2.44,0,0,1-2.43-2.55,2.94,2.94,0,0,1,3-2.73c2.38,0,3.66,2.61,3.66,4.7,0,3.19-2.67,5.74-5.28,7a1.38,1.38,0,0,1-1.91-.4,1.43,1.43,0,0,1,.63-1.91c1.4-.82,3.14-2.56,3.19-4.24a4.34,4.34,0,0,1-.87.12" transform="translate(0 -1.29)"/><path d="M275.84,91.47q2.45.81,2.37,1.71a2.36,2.36,0,0,1,.47,1.82l-.12,0,.09.28c-1.11,2.5-2.25,4-3.4,4.36l-.49,0a1.12,1.12,0,0,1-1-.59l0-.24a6,6,0,0,0,2.42-3.21,3.24,3.24,0,0,0,.37-1.21c0-.76-.18-1.15-.52-1.18q-3.6.93-10.76,9.12-8.54,11.43-9.5,16.31l-.07.89.1.24q2.26.07,11.42-6.56a4.67,4.67,0,0,1,2.2-.69l.12,0q1.61.39,1.5,1.38c-.37,1.44-2.22,4.4-5.54,8.85a25.52,25.52,0,0,0-2.57,4.81l-.77.18a2.25,2.25,0,0,1-1.06-1q.38-2.37,6.37-10.78l.32-.74a21.55,21.55,0,0,0-3.5,2.46q-5.55,3.8-8.62,3.53c-1.47-.35-2.17-1.08-2.07-2.2q.45-5.27,10.56-18.47a51.8,51.8,0,0,1,7.55-7.16q2.22-2.07,4.07-1.9" transform="translate(0 -1.29)"/><path d="M277.3,114.93l.79-.05c1.81.18,2.75.77,2.83,1.76q.07.93-2.49,3.6a4.81,4.81,0,0,1-2.91,1.48l-.22,0a4.34,4.34,0,0,1-1.85-.86,5,5,0,0,0-.54,1.73l.14.22a1.35,1.35,0,0,0-.1.34c.3,1.17.91,1.71,1.83,1.63l.47,0c1.09-.1,2.67-1.14,4.76-3.11a5.29,5.29,0,0,1,1.7-1.06l.22,0c.22,0,.39.23.52.74q-.24,1.46-3.47,3.9a6.83,6.83,0,0,1-3.58,1.33l0-.12-.19.15q-4-.8-4.27-3.78-.3-3.37,4.44-7.13a7.32,7.32,0,0,1,1.95-.74m-3.09,4.67,0,.09.79.15h.12a7.07,7.07,0,0,0,3.4-3.2v-.13a6.6,6.6,0,0,0-3.72,2.25,5.18,5.18,0,0,0-.62.84" transform="translate(0 -1.29)"/><path d="M298.05,96.06c.95,0,1.44.17,1.48.44l0,.55q-2.81,3.15-2.78,3.45a79.33,79.33,0,0,0-5.85,10.34,13.19,13.19,0,0,1-1.13,2.07.85.85,0,0,1,.12.32l.76,0,.69,0a.11.11,0,0,0,.1-.12l.55,0,1.87-.15a.79.79,0,0,1,.44.07.11.11,0,0,0,.1-.12h1.11l1.43-.12c.07,0,.1,0,.1.1s.12,0,.1-.1h1.11l.54,0c.09,0,.13,0,.13.1s.11,0,.1-.13l.56.08,1.85-.18c.09,0,.13,0,.13.1s.11,0,.1-.1c3.1-.06,6.15-.22,9.12-.46l0,.09.2-.12.88-.07.67.05a.8.8,0,0,1,.32-.15v.12l.22-.15.32,0a.83.83,0,0,1,.45.07c.08,0,.11,0,.1-.12l.56.07.1,0c.23,0,.34-.06.32-.13l.57.05.87-.07a4.07,4.07,0,0,1,1.75-.15l1.33-.12.2-.12.12.22.22-.15h.22c.05.51-.4.81-1.35.89a.85.85,0,0,1-.32.12l-.23-.07-.64.37-.1,0c-.08,0-.12,0-.12-.1a1.2,1.2,0,0,1-.64.27h-.12c-.07,0-.1,0-.1-.09l-.22.12-.23,0q-.09,0-.12-.09l-.2.12-1,.1-.76.17v-.1l-.22.12-1,.08-.54.17v-.12a7.49,7.49,0,0,1-1.41.34c-.15,0-.22,0-.22-.07-.72.13-1.27.21-1.63.25l-1.65.14a.71.71,0,0,1-.44-.07c-.09,0-.12,0-.1.12l-.57-.07-2.64.22-.67,0a.13.13,0,0,0-.1.13l-.44-.08c-2.24.13-3.66.22-4.27.27l0-.1a.09.09,0,0,0-.1.1q-7.58.35-8.68.32a.73.73,0,0,1-.33.15c0-.08-.05-.11-.12-.1a69.1,69.1,0,0,0-4.56,11.11c0,.31-.24.55-.82.73-.75-.16-1.14-.42-1.16-.78a38.83,38.83,0,0,1,3-7.78l1.26-3.08h-.1a.66.66,0,0,1-.34-.07c-.15,0-.22,0-.2.12l-1.33,0-2.07.17c-.09,0-.13,0-.13-.1l-.22.12-.64,0c-.08,0-.12,0-.12-.1l-.23.15-.42,0q-.12,0-.12-.09l-.22.12-.22,0a.74.74,0,0,1-.45-.07.12.12,0,0,0-.09.12q-7.56.67-7.78-1.85-.12-1.38,4.2-2.59a18.46,18.46,0,0,1,3.33-.93,2,2,0,0,1,1.72.83l.05.45c0,.13-.2.29-.61.49a19.77,19.77,0,0,0-5.73,1.61v.09a4,4,0,0,1,1.24.23c.08,0,.11,0,.1-.13a16.73,16.73,0,0,0,3.2-.05l.67,0c.06,0,.11,0,.12.1a.11.11,0,0,0,.1-.12h1.31l2.64-.25c.72-.06,1.82-.12,3.3-.17a98.35,98.35,0,0,1,6.81-12.85,16.19,16.19,0,0,1,3.09-4.15,1.23,1.23,0,0,1,.52-.27" transform="translate(0 -1.29)"/><path d="M348.23,91.35c1.9.43,2.85,1.1,2.85,2q0,2.52-11.42,10.07-4.95,2.91-12.9,8.29h-.12v.12l.12.27a1.14,1.14,0,0,1,.42-.12q.27,0,.27.12l.94-.12h.81q6.6,0,8.44,2.83a8.35,8.35,0,0,1,.27,1.36v.15q0,2.44-6.66,6.51a35.47,35.47,0,0,1-7.6,3.26l-2.86.69v-.15l-.27.15h-.81c-1.07,0-1.71-.27-1.9-.81v-.69c0-.14.18-.27.54-.4a2.22,2.22,0,0,0,1.08.27q3,0,9.38-3.13,6.78-4,6.78-6.12v-.54c0-.63-1.22-1.21-3.67-1.75-.08,0-.13,0-.13.12l-1-.12h-1.9a1.22,1.22,0,0,0-.54.12.11.11,0,0,1-.12-.12l-.55.12a6.73,6.73,0,0,1-4.49-1.36q-.89,1-3.4,4.89c-.3.14-1.24,1.73-2.84,4.76-.51,1.73-1.19,2.59-2,2.59h-.28q-.54-.27-.54-.69.18-2.79,7.6-13a77.79,77.79,0,0,1,13.86-13.74,53.82,53.82,0,0,1,6.27-3.92,20.43,20.43,0,0,1,6.37-1.9m-23.37,19v.12q.72,0,10.73-6.66a66.56,66.56,0,0,0,11.28-8l1.77-2.29V93.1q-4.67,0-13.32,6.81a73.08,73.08,0,0,0-10.46,10.46" transform="translate(0 -1.29)"/><path d="M347.58,115c1.17.29,1.74.7,1.71,1.21a6.91,6.91,0,0,1-1.36.24l0-.12a9.64,9.64,0,0,0-5.67,3c-1.35,1.72-2,2.86-2.1,3.43l0,.23a1.81,1.81,0,0,0,.71,1.62l.35,0q3.21.3,7.13-7.4c0-.2.34-.33,1-.4,1,.09,1.52.49,1.46,1.21l0,.25A12.5,12.5,0,0,0,349,122c0,.09,0,.13.1.13l-.32,1.06c0,.08,0,.12.1.12l-.17.6,0,.46a2.67,2.67,0,0,0,.87,2.47q-.1,1.08-1.41,1a2.28,2.28,0,0,1-1.58-2.54,4.61,4.61,0,0,1,0-1.43q-2.69,2.76-5.25,2.54l-.25,0c-2.17-.83-3.19-2-3.06-3.38h.12l-.09-.25q2.11-5.06,5.87-6.81a19.74,19.74,0,0,1,2.83-.84l0,.13Z" transform="translate(0 -1.29)"/><path d="M368,95.32c.13,0,.43.31.91.91,0,.33-.74,1.33-2.22,3a84.22,84.22,0,0,0-8.61,14.88,18.86,18.86,0,0,0-1.06,2.61h.14a28.8,28.8,0,0,1,4.3-2h1.06c.13,0,.26.14.39.4v.64a15.64,15.64,0,0,1-4.71,2.89q4,4.11,4.44,6.66a2,2,0,0,1,.27.91,1.78,1.78,0,0,1-1.18.52c-.59-.13-1.42-1.27-2.49-3.41-1.32-2.1-2.45-3.28-3.38-3.52a12.66,12.66,0,0,0-1.19,5.1c.09.27.18.4.27.4-.11.77-.29,1.16-.54,1.16h-.37c-1.05,0-1.58-.69-1.58-2.07a38.84,38.84,0,0,1,1.7-6.66,16.38,16.38,0,0,0,1.56-3.8,87,87,0,0,1,8-14.12,15.37,15.37,0,0,1,3.8-4.56Z" transform="translate(0 -1.29)"/><path d="M371.34,114.93l.79-.05c1.81.18,2.75.77,2.84,1.76,0,.62-.79,1.82-2.5,3.6a4.76,4.76,0,0,1-2.9,1.48l-.23,0a4.34,4.34,0,0,1-1.85-.86,5.18,5.18,0,0,0-.54,1.73l.15.22a1,1,0,0,0-.1.34c.29,1.17.9,1.71,1.82,1.63l.47,0q1.63-.15,4.76-3.11a5.29,5.29,0,0,1,1.71-1.06l.22,0c.21,0,.39.23.52.74q-.25,1.46-3.48,3.9a6.83,6.83,0,0,1-3.58,1.33l0-.12-.2.15q-4-.8-4.27-3.78-.3-3.37,4.44-7.13a7.32,7.32,0,0,1,1.95-.74m-3.08,4.67,0,.09.79.15h.12a7.13,7.13,0,0,0,3.41-3.2v-.13a6.59,6.59,0,0,0-3.73,2.25,4.72,4.72,0,0,0-.61.84" transform="translate(0 -1.29)"/><path d="M393.59,98.06a1.48,1.48,0,0,1,1.56.62l.07.34a19.84,19.84,0,0,0-2.79,4.66q-2.85,7.23-4.24,11.25a72,72,0,0,0-3.62,12l-.45.64-.12,0c-.74.06-1.15-.09-1.21-.47a15.72,15.72,0,0,1,.07-1.6c-.08,0-.13,0-.15-.08l-1,.52a4,4,0,0,1-3.6-1.28,1.77,1.77,0,0,1-.37-.84l-.15-.86c-.41-2.29.62-4.73,3.11-7.33a8.12,8.12,0,0,1,2.41-1,15.37,15.37,0,0,1,3.14-.12q3.33-9.53,5.25-13.79c.79-1.71,1.5-2.63,2.12-2.74m-14,25.16q.27,1.41,1.8,1.14c1.71-.91,2.48-1.83,2.32-2.76a56.13,56.13,0,0,0,1.87-5.43,3.46,3.46,0,0,0-1.45,0H384l-.74.24,0-.1a6.49,6.49,0,0,0-3.18,3.73,7.63,7.63,0,0,0-.47,3.13" transform="translate(0 -1.29)"/><line class="cls-5" x1="188.92" y1="108.28" x2="242.42" y2="108.28"/><line class="cls-5" x1="408.3" y1="108.28" x2="461.8" y2="108.28"/></svg>