<svg id="Layer_1" data-name="Layer 1" xmlns="http://www.w3.org/2000/svg" viewBox="0 0 841.98 616.28"><defs><style>.cls-1{fill:#fed099;}.cls-2{fill:#22b6b4;}.cls-3{fill:#f57b92;}.cls-4{fill:#fff;}</style></defs><path class="cls-1" d="M735,529.88c-60.39,31.38-82.16-42.81-82.16-42.81H476.6s-41.46,43.47-68.6,43.87c-25.14-1.64-58.46-27.54-58.46-27.54h-155L188,494.27s-38.52,27.45-48.7,27.63-49-6-81.24,2.53-21,52.25,11.36,58.36,67.15-30.68,67.15-30.68c70.55,12.76,55,58.5,55,58.5s25.11-1.36,448.31-7.37c6-8.32,25.16-19.77,42.23-28.88a77.21,77.21,0,0,1,58.8-5.74c11,3.34,22.63,6.7,30.29,8.36,78-12.32,75.68-33.26,41.83-57.58-25.43-3.3-51.61,2.11-78.06,10.46" transform="translate(-5.66 -0.04)"/><path class="cls-2" d="M476.6,416s107.3,2.6,143.4-27.65c2,85.62,0,91.7,0,91.7H476.6s14.4-30.74,0-64.05" transform="translate(-5.66 -0.04)"/><path class="cls-2" d="M313.45,288.48s3.31,8.35,0,8.81c-13.91,1.95-58.14,1.33-87.26,27.52-52.39,47.13,27.1,114.91,27.1,114.91s-47.15,6.13-83.64-40.79c-37.15-47.78,37-168.81,143.8-110.45" transform="translate(-5.66 -0.04)"/><path class="cls-2" d="M320.25,298.25s-14.51-4.09-7.17-14.82c25.16-36.74,106.6-121.32,170.06-126.08,82-6.15,90.66,66.41,68.11,126.08,51.13-7.54,104.68-35.18,136.6,8.6S620,402.23,620,402.23l6.54-34s-117,34.16-170.63-15.14c36.37-28.58,34.84-115.84-135.64-54.8" transform="translate(-5.66 -0.04)"/><path class="cls-3" d="M355.17,371.76s-30.65-49.34-95.23-39.46,66.77,166.24,148.87,187.12c49.8-48.63,58-91.87,59.65-130.18-62.93-10.39-81.54-36.11-82.09-70.86,0,0-31.75,27.69-31.2,53.38" transform="translate(-5.66 -0.04)"/><path d="M235.85,453c-23.13,0-52.85-8.23-74.89-43.09-18.31-29-20.12-64.3-5-97,14.7-31.72,42.74-54.81,71.44-58.83,55.26-7.76,91.89,33.2,93.42,35a6.54,6.54,0,0,1-9.82,8.63c-.32-.37-33.62-37.34-81.78-30.63-24.42,3.42-48.51,23.59-61.39,51.38C154.59,347,156.11,377.83,172,403c35.45,56.07,92.3,32.55,94.7,31.53a6.54,6.54,0,0,1,5.19,12,100.86,100.86,0,0,1-36,6.56" transform="translate(-5.66 -0.04)"/><path d="M307.63,292a6.3,6.3,0,0,1-3-.73,6.54,6.54,0,0,1-2.84-8.79h0c2.17-4.21,54-103.41,144.8-130.87,83.16-25.17,136.15,11.23,147.19,45.12,11.63,35.68-29.15,88.53-30.89,90.77a6.54,6.54,0,0,1-10.32-8c10.67-13.7,36.64-54.54,28.78-78.67-9.13-28-57.07-59-131-36.66C365,190,314,287.5,313.45,288.48a6.55,6.55,0,0,1-5.82,3.55" transform="translate(-5.66 -0.04)"/><path d="M622.09,422.56a6.54,6.54,0,0,1-2-12.77c13.32-4.24,79.54-28.18,74-84-2.07-20.7-10.46-37.14-25-48.86-33.51-27.1-89.07-21.25-89.63-21.2a6.54,6.54,0,0,1-1.47-13h0c2.49-.28,61.46-6.55,99.27,24,17.35,14,27.37,33.44,29.81,57.77,6.58,65.84-68,93-83,97.74a6.48,6.48,0,0,1-2,.31" transform="translate(-5.66 -0.04)"/><path d="M405.75,531.32a6.36,6.36,0,0,1-2.07-.33c-140.63-46.74-195.49-119.8-187-167.9,4.78-27,28.55-43,61.92-42,33.92-1.16,60.09,21.28,72.91,35,6.15-19.55,20.24-45.56,52.47-61.67,31-15.52,63.21-14.4,74.87,2.6,5.1,7.43,12.78,28.54-26,63.87-17.45,15.88-42.94,28.42-75.8,37.25a6.54,6.54,0,0,1-3.39-12.63c30.82-8.28,54.5-19.82,70.37-34.29,25.46-23.2,29.1-39.39,24-46.8-6.74-9.81-30.91-12-58.23,1.69-35,17.47-45.5,48.34-48.68,65.17a6.53,6.53,0,0,1-5,5.17,6.61,6.61,0,0,1-6.73-2.57c-.3-.41-29.94-41.12-70.79-39.71-27.31-.76-45.44,10.88-49.06,31.26C223.29,400.91,265,470.58,405.5,517.87c10.68-4.74,59.2-30.74,58.1-111.31a6.54,6.54,0,0,1,6.45-6.63h0a6.32,6.32,0,0,1,6.62,6c0,.14,0,.29,0,.43C478,504.62,410.82,529.91,408,530.94a6.67,6.67,0,0,1-2.21.38" transform="translate(-5.66 -0.04)"/><path d="M518.68,402.24c-52.15,0-87-22.95-92.31-26.63-13.8-6.2-37-25.56-30.28-56.9,3.33-15.51,13.68-27,29.15-32.37,17-5.91,38.08-3.5,49.06,5.57A6.54,6.54,0,0,1,466,302c-6.56-5.43-22.78-8.05-36.44-3.31-7.77,2.7-17.66,8.84-20.65,22.77-6.31,29.16,22.09,41.89,23.29,42.42a7.65,7.65,0,0,1,1.28.72c.45.35,47.25,33.72,114.33,22,67.9-11.9,99.43-38.16,99.74-38.43a6.54,6.54,0,0,1,8.51,9.93c-1.36,1.17-34.21,28.81-106,41.38a181.5,181.5,0,0,1-31.39,2.76" transform="translate(-5.66 -0.04)"/><path d="M620,480.07a6.54,6.54,0,0,1-6.54-6.54V371.75a6.54,6.54,0,0,1,13.08,0V473.53a6.54,6.54,0,0,1-6.54,6.54" transform="translate(-5.66 -0.04)"/><path d="M658.75,616.31H187.63a6.55,6.55,0,0,1-5.94-3.79c-9.13-19.76-23.82-35-44.83-46.5-8.17,4.19-30.67,15.15-50.51,19.45C60.77,591,42.43,587.21,7.46,550.54a6.52,6.52,0,0,1-1.36-6.87c11.28-29,47.94-53.49,80.13-42.77a394.91,394.91,0,0,0,53.6,13.33c16.26-4,32.06-16,49.62-37.8a6.54,6.54,0,0,1,5.09-2.44H305.85a6.54,6.54,0,0,1,0,13.08H197.65c-19.21,23.24-37.13,36.05-56.22,40.22a7,7,0,0,1-2.42.07,400.25,400.25,0,0,1-56.91-14c-23.65-7.89-51.59,9.87-62.16,31.33,31.48,32.14,45.19,32,63.64,28,22.44-4.86,49.9-19.67,50.18-19.82a6.56,6.56,0,0,1,6.12-.06c23.56,12.17,41,29.13,51.84,50.42H655.65c19.21-23.25,37.13-36,56.22-40.21a6.46,6.46,0,0,1,2.4-.07,392.23,392.23,0,0,1,56.93,14c23.69,7.87,51.61-9.9,62.14-31.38-31.45-32.09-45.16-32-63.62-28-22.42,4.86-49.92,19.64-50.19,19.79a6.6,6.6,0,0,1-6.11.06c-23.56-12.14-41-29.08-51.85-50.39H454.66a6.54,6.54,0,0,1,0-13.08h211a6.55,6.55,0,0,1,5.94,3.79c9.14,19.77,23.83,35,44.84,46.47,8.16-4.18,30.66-15.12,50.51-19.42,25.57-5.54,43.91-1.74,78.87,34.89a6.54,6.54,0,0,1,1.38,6.88c-11.28,29-48,53.52-80.14,42.8a388.93,388.93,0,0,0-53.59-13.33c-16.25,3.94-32.06,16-49.62,37.8a6.57,6.57,0,0,1-5.1,2.44" transform="translate(-5.66 -0.04)"/><path class="cls-4" d="M266.74,569.26H199.68a6.54,6.54,0,1,1-.51-13.07,4.34,4.34,0,0,1,.51,0h67.06a6.54,6.54,0,0,1,.51,13.07h-.51" transform="translate(-5.66 -0.04)"/><path class="cls-4" d="M230.9,515.36H190.83v13.08H230.9a6.54,6.54,0,0,0,0-13.08h0" transform="translate(-5.66 -0.04)"/><path d="M200.25,594.43a6.53,6.53,0,0,1-6-3.91c-26.62-60.75-.91-110.93.2-113a6.54,6.54,0,0,1,11.55,6c-.24.47-23.82,46.92.2,101.7a6.55,6.55,0,0,1-6,9.17" transform="translate(-5.66 -0.04)"/><path class="cls-4" d="M647.91,487.16a127.7,127.7,0,0,1,7.6,68,6.54,6.54,0,1,0,12.91,2.13,140.67,140.67,0,0,0-6.5-70.09Z" transform="translate(-5.66 -0.04)"/><path d="M668.43,562.73a6.56,6.56,0,0,1-6.51-6.61,6.74,6.74,0,0,1,.08-1,127.33,127.33,0,0,0-9.16-72,6.55,6.55,0,1,1,12-5.26,140.37,140.37,0,0,1,10.08,79.35,6.54,6.54,0,0,1-6.44,5.48" transform="translate(-5.66 -0.04)"/><path d="M288.27,180.35a4.92,4.92,0,1,1-4.92-4.92h0a4.91,4.91,0,0,1,4.91,4.91h0" transform="translate(-5.66 -0.04)"/><path d="M378,140.82a7.38,7.38,0,1,1-7.39-7.37h0a7.37,7.37,0,0,1,7.37,7.37" transform="translate(-5.66 -0.04)"/><path d="M455.89,63.15a7.38,7.38,0,1,1-7.39-7.37h0a7.37,7.37,0,0,1,7.38,7.36h0" transform="translate(-5.66 -0.04)"/><path d="M158.86,238.28a20.55,20.55,0,1,1-20.55-20.55h0a20.56,20.56,0,0,1,20.55,20.55" transform="translate(-5.66 -0.04)"/><path d="M544,107.62a6.32,6.32,0,1,1-6.32-6.32,6.32,6.32,0,0,1,6.32,6.32h0" transform="translate(-5.66 -0.04)"/><path d="M662.86,195.36a19.93,19.93,0,1,1-19.93-19.93h0a20,20,0,0,1,19.93,19.93" transform="translate(-5.66 -0.04)"/><path d="M780,282.28a15,15,0,1,1-15-15h0a15,15,0,0,1,15,15" transform="translate(-5.66 -0.04)"/><path d="M127.32,463.19a16.56,16.56,0,1,1-16.56-16.57,16.55,16.55,0,0,1,16.56,16.57v0" transform="translate(-5.66 -0.04)"/><path d="M184.92,109.33a1.7,1.7,0,1,1-1.7-1.7h0a1.71,1.71,0,0,1,1.69,1.7" transform="translate(-5.66 -0.04)"/><path d="M414.4,11a11,11,0,1,1-11-11,11,11,0,0,1,11,11" transform="translate(-5.66 -0.04)"/><path d="M222.41,193.16a7.9,7.9,0,1,1-7.9-7.9h0a7.9,7.9,0,0,1,7.89,7.9" transform="translate(-5.66 -0.04)"/><path d="M712.77,165.5a5.91,5.91,0,1,1-5.92-5.9h0a5.91,5.91,0,0,1,5.9,5.9" transform="translate(-5.66 -0.04)"/><path d="M690.22,423.94a7.92,7.92,0,1,1-7.93-7.91h0a7.92,7.92,0,0,1,7.92,7.91" transform="translate(-5.66 -0.04)"/><path d="M741.18,362.45a9.31,9.31,0,1,1-9.32-9.3h0a9.31,9.31,0,0,1,9.31,9.3" transform="translate(-5.66 -0.04)"/><path d="M58.06,307.83a10.54,10.54,0,1,1-10.54-10.54,10.54,10.54,0,0,1,10.54,10.54h0" transform="translate(-5.66 -0.04)"/><path class="cls-4" d="M656.24,498.72H544.5a6.54,6.54,0,0,0,0,13.07H656.24Z" transform="translate(-5.66 -0.04)"/><path d="M668,519.42H535a6.54,6.54,0,0,1,0-13.08H668a6.54,6.54,0,1,1,0,13.08h0" transform="translate(-5.66 -0.04)"/><path class="cls-4" d="M659.52,543.81H613.41a6.54,6.54,0,1,0,0,13.08h46.11Z" transform="translate(-5.66 -0.04)"/><path d="M670.06,547.24H603a6.54,6.54,0,1,1,0-13.08h67.06a6.54,6.54,0,0,1,0,13.08" transform="translate(-5.66 -0.04)"/><path d="M261.6,562.72H194.54a6.54,6.54,0,0,1,0-13.07H261.6a6.54,6.54,0,0,1,.51,13.07h-.51" transform="translate(-5.66 -0.04)"/><path d="M225.1,535H191.52A6.54,6.54,0,1,1,191,521.9H225.1a6.54,6.54,0,0,1,.51,13.07h-.51" transform="translate(-5.66 -0.04)"/></svg>